<svg width="88" height="95" viewBox="0 0 88 95" fill="none" xmlns="http://www.w3.org/2000/svg">
<rect width="88" height="88" rx="15" fill="#173753"/>
<path d="M36.936 34.336C36.936 33.632 36.872 32.928 36.744 32.224C36.68 31.456 36.488 30.784 36.168 30.208C35.912 29.568 35.496 29.056 34.92 28.672C34.408 28.288 33.672 28.096 32.712 28.096C31.496 28.096 30.472 28.48 29.64 29.248C29.256 28.224 29.064 27.296 29.064 26.464C29.064 25.44 29.224 24.448 29.544 23.488C29.928 22.464 30.504 21.568 31.272 20.8C32.04 20.032 33 19.424 34.152 18.976C35.368 18.464 36.84 18.208 38.568 18.208C42.408 18.208 45.384 19.36 47.496 21.664C49.608 23.968 50.664 27.136 50.664 31.168V88C48.936 88 47.24 87.872 45.576 87.616C43.976 87.36 42.504 86.848 41.16 86.08C39.88 85.248 38.856 84.032 38.088 82.432C37.32 80.832 36.936 78.688 36.936 76V34.336ZM27.624 88H26.664C25 88 23.4 87.84 21.864 87.52C20.328 87.2 18.952 86.624 17.736 85.792C16.584 84.96 15.624 83.808 14.856 82.336C14.152 80.864 13.8 78.944 13.8 76.576V18.304H15.336C16.872 18.304 18.376 18.496 19.848 18.88C21.32 19.2 22.632 19.808 23.784 20.704C24.936 21.536 25.864 22.688 26.568 24.16C27.272 25.632 27.624 27.52 27.624 29.824V88ZM59.976 34.336C59.976 33.632 59.912 32.928 59.784 32.224C59.72 31.456 59.528 30.784 59.208 30.208C58.952 29.568 58.536 29.056 57.96 28.672C57.448 28.288 56.712 28.096 55.752 28.096C54.536 28.096 53.512 28.48 52.68 29.248C52.296 28.224 52.104 27.296 52.104 26.464C52.104 25.44 52.264 24.448 52.584 23.488C52.968 22.464 53.544 21.568 54.312 20.8C55.08 20.032 56.04 19.424 57.192 18.976C58.408 18.464 59.88 18.208 61.608 18.208C65.448 18.208 68.424 19.36 70.536 21.664C72.648 23.968 73.704 27.136 73.704 31.168V88C71.976 88 70.28 87.872 68.616 87.616C67.016 87.36 65.544 86.848 64.2 86.08C62.92 85.248 61.896 84.032 61.128 82.432C60.36 80.832 59.976 78.688 59.976 76V34.336Z" fill="white"/>
</svg>
