<svg width="267" height="105" viewBox="0 0 267 105" fill="none" xmlns="http://www.w3.org/2000/svg">
<rect width="267" height="105" fill="white"/>
<rect x="10" width="88" height="88" rx="15" fill="#173753"/>
<path d="M46.936 34.336C46.936 33.632 46.872 32.928 46.744 32.224C46.68 31.456 46.488 30.784 46.168 30.208C45.912 29.568 45.496 29.056 44.92 28.672C44.408 28.288 43.672 28.096 42.712 28.096C41.496 28.096 40.472 28.48 39.64 29.248C39.256 28.224 39.064 27.296 39.064 26.464C39.064 25.44 39.224 24.448 39.544 23.488C39.928 22.464 40.504 21.568 41.272 20.8C42.04 20.032 43 19.424 44.152 18.976C45.368 18.464 46.84 18.208 48.568 18.208C52.408 18.208 55.384 19.36 57.496 21.664C59.608 23.968 60.664 27.136 60.664 31.168V88C58.936 88 57.24 87.872 55.576 87.616C53.976 87.36 52.504 86.848 51.16 86.08C49.88 85.248 48.856 84.032 48.088 82.432C47.32 80.832 46.936 78.688 46.936 76V34.336ZM37.624 88H36.664C35 88 33.4 87.84 31.864 87.52C30.328 87.2 28.952 86.624 27.736 85.792C26.584 84.96 25.624 83.808 24.856 82.336C24.152 80.864 23.8 78.944 23.8 76.576V18.304H25.336C26.872 18.304 28.376 18.496 29.848 18.88C31.32 19.2 32.632 19.808 33.784 20.704C34.936 21.536 35.864 22.688 36.568 24.16C37.272 25.632 37.624 27.52 37.624 29.824V88ZM69.976 34.336C69.976 33.632 69.912 32.928 69.784 32.224C69.72 31.456 69.528 30.784 69.208 30.208C68.952 29.568 68.536 29.056 67.96 28.672C67.448 28.288 66.712 28.096 65.752 28.096C64.536 28.096 63.512 28.48 62.68 29.248C62.296 28.224 62.104 27.296 62.104 26.464C62.104 25.44 62.264 24.448 62.584 23.488C62.968 22.464 63.544 21.568 64.312 20.8C65.08 20.032 66.04 19.424 67.192 18.976C68.408 18.464 69.88 18.208 71.608 18.208C75.448 18.208 78.424 19.36 80.536 21.664C82.648 23.968 83.704 27.136 83.704 31.168V88C81.976 88 80.28 87.872 78.616 87.616C77.016 87.36 75.544 86.848 74.2 86.08C72.92 85.248 71.896 84.032 71.128 82.432C70.36 80.832 69.976 78.688 69.976 76V34.336Z" fill="white"/>
<path d="M135 42.11C140.893 42.11 145.53 43.8433 148.91 47.31C152.333 50.7333 154.045 55.695 154.045 62.195V88H149.3V74.61H120.7V88H116.02V62.195C116.02 55.695 117.71 50.7333 121.09 47.31C124.513 43.8433 129.15 42.11 135 42.11ZM149.3 70.45V61.74C149.3 56.67 148.043 52.8567 145.53 50.3C143.017 47.7 139.507 46.4 135 46.4C130.493 46.4 126.983 47.7 124.47 50.3C121.957 52.8567 120.7 56.67 120.7 61.74V70.45H149.3ZM185.491 42.5C191.297 42.5 195.847 43.8867 199.141 46.66C202.434 49.4333 204.081 53.2467 204.081 58.1C204.081 62.9533 202.434 66.7667 199.141 69.54C195.847 72.27 191.297 73.635 185.491 73.635H173.271V88H168.461V42.5H185.491ZM185.361 69.41C189.867 69.41 193.312 68.435 195.696 66.485C198.079 64.4917 199.271 61.6967 199.271 58.1C199.271 54.4167 198.079 51.6 195.696 49.65C193.312 47.6567 189.867 46.66 185.361 46.66H173.271V69.41H185.361ZM231.511 42.5C237.318 42.5 241.868 43.8867 245.161 46.66C248.455 49.4333 250.101 53.2467 250.101 58.1C250.101 62.9533 248.455 66.7667 245.161 69.54C241.868 72.27 237.318 73.635 231.511 73.635H219.291V88H214.481V42.5H231.511ZM231.381 69.41C235.888 69.41 239.333 68.435 241.716 66.485C244.1 64.4917 245.291 61.6967 245.291 58.1C245.291 54.4167 244.1 51.6 241.716 49.65C239.333 47.6567 235.888 46.66 231.381 46.66H219.291V69.41H231.381Z" fill="#173753"/>
<line y1="102.5" x2="267" y2="102.5" stroke="#173753" stroke-width="5"/>
</svg>
